<?xml version="1.0" encoding="UTF-8" standalone="no"?>
<!-- Created with Inkscape (http://www.inkscape.org/) -->

<svg
   xmlns:dc="http://purl.org/dc/elements/1.1/"
   xmlns:cc="http://creativecommons.org/ns#"
   xmlns:rdf="http://www.w3.org/1999/02/22-rdf-syntax-ns#"
   xmlns:svg="http://www.w3.org/2000/svg"
   xmlns="http://www.w3.org/2000/svg"
   xmlns:xlink="http://www.w3.org/1999/xlink"
   xmlns:sodipodi="http://sodipodi.sourceforge.net/DTD/sodipodi-0.dtd"
   xmlns:inkscape="http://www.inkscape.org/namespaces/inkscape"
   width="1646.1359"
   height="1606.5891"
   id="svg2"
   version="1.1"
   inkscape:version="0.48.1 "
   sodipodi:docname="Documento nuevo 1">
  <defs
     id="defs4">
    <linearGradient
       id="linearGradient3945">
      <stop
         style="stop-color:#ffffff;stop-opacity:0;"
         offset="0"
         id="stop3947" />
      <stop
         style="stop-color:#ffffff;stop-opacity:1;"
         offset="1"
         id="stop3949" />
    </linearGradient>
    <inkscape:path-effect
       effect="skeletal"
       id="path-effect3770"
       is_visible="true"
       pattern="m 40.705307,1.3934286 c 21.778781,0 39.311878,17.5330974 39.311878,39.3118784 l 0,170.827003 c 0,21.77878 -17.533097,39.31187 -39.311878,39.31187 -21.77878,0 -39.3118784,-17.53309 -39.3118784,-39.31187 l 0,-170.827003 c 0,-21.778781 17.5330984,-39.3118784 39.3118784,-39.3118784 z"
       copytype="repeated_stretched"
       prop_scale="1"
       scale_y_rel="false"
       spacing="100"
       normal_offset="0"
       tang_offset="0"
       prop_units="false"
       vertical_pattern="false"
       fuse_tolerance="0" />
    <radialGradient
       inkscape:collect="always"
       xlink:href="#linearGradient3945"
       id="radialGradient3960"
       cx="343.45517"
       cy="1799.4127"
       fx="343.2301"
       fy="1553.5559"
       r="514.58838"
       gradientTransform="matrix(52.650841,0.57037552,-0.0280916,2.5932324,-17686.12,-3527.0622)"
       gradientUnits="userSpaceOnUse" />
  </defs>
  <sodipodi:namedview
     id="base"
     pagecolor="#ffffff"
     bordercolor="#666666"
     borderopacity="1.0"
     inkscape:pageopacity="0.0"
     inkscape:pageshadow="2"
     inkscape:zoom="0.40458385"
     inkscape:cx="605.74179"
     inkscape:cy="885.70865"
     inkscape:document-units="px"
     inkscape:current-layer="layer1"
     showgrid="false"
     fit-margin-top="0"
     fit-margin-left="0"
     fit-margin-right="0"
     fit-margin-bottom="0"
     inkscape:window-width="1680"
     inkscape:window-height="1031"
     inkscape:window-x="-4"
     inkscape:window-y="-4"
     inkscape:window-maximized="1" />
  <metadata
     id="metadata7">
    <rdf:RDF>
      <cc:Work
         rdf:about="">
        <dc:format>image/svg+xml</dc:format>
        <dc:type
           rdf:resource="http://purl.org/dc/dcmitype/StillImage" />
        <dc:title></dc:title>
      </cc:Work>
    </rdf:RDF>
  </metadata>
  <g
     inkscape:groupmode="layer"
     id="layer3"
     inkscape:label="Capa#1"
     style="display:none"
     transform="translate(437.48657,245.26746)"
     sodipodi:insensitive="true">
    <rect
       style="color:#000000;fill:#000000;fill-opacity:1;fill-rule:nonzero;stroke:none;stroke-width:3;marker:none;visibility:visible;display:inline;overflow:visible;enable-background:accumulate"
       id="rect3958"
       width="1646.1359"
       height="1606.5891"
       x="-437.48657"
       y="-245.26746"
       rx="39.311878"
       ry="39.311878" />
  </g>
  <g
     inkscape:label="Capa 1"
     inkscape:groupmode="layer"
     id="layer1"
     style="display:inline"
     transform="translate(437.48657,245.26746)">
    <path
       style="color:#000000;fill:url(#radialGradient3960);fill-opacity:1;fill-rule:nonzero;stroke:none;stroke-width:3;marker:none;visibility:visible;display:inline;overflow:visible;enable-background:accumulate"
       d="m 372.77828,-47.064024 c -2.57411,-0.338959 -5.20804,-0.525417 -7.90251,-0.527925 -7.18531,-0.0066 -14.02919,1.254984 -20.12621,3.468714 -6.09703,2.213631 -11.45153,5.38772 -15.78627,9.246895 -4.33471,3.859177 -7.64409,8.380163 -9.71487,13.291493 -2.07078,4.91122 -2.88578,10.221612 -2.35784,15.6402121 L 333.45496,164.04395 c 0.52796,5.41859 1.87907,10.51066 3.79441,15.06454 1.91535,4.55388 4.36777,8.56469 7.18313,11.93407 2.81536,3.36938 6.00045,6.06922 9.39101,7.92966 3.39056,1.86047 7.01505,2.90783 10.81361,2.91232 3.79856,0.004 7.39838,-1.03389 10.79168,-2.88632 3.39329,-1.85244 6.55591,-4.52195 9.37695,-7.88482 2.82102,-3.36289 5.32344,-7.41605 7.2476,-11.9658 1.92414,-4.54975 3.28252,-9.59594 3.82202,-15.01388 l 16.9212,-170.0022004 c 0.5395,-5.4179386 -0.27851,-10.6893036 -2.34004,-15.6049176 -2.06154,-4.915523 -5.35648,-9.454143 -9.68491,-13.321754 -4.32844,-3.867501 -9.70608,-7.082814 -15.79991,-9.307921 -3.80865,-1.390618 -7.90315,-2.396893 -12.19343,-2.960951 z m 202.98445,46.26427225 c -0.81521,-0.11831623 -1.64473,-0.19812172 -2.4531,-0.27928365 -6.46731,-0.6464145 -12.69058,-0.1056833 -18.27036,1.49868323 -5.57978,1.60436567 -10.51254,4.26908197 -14.50102,7.80316847 -3.98848,3.5340867 -7.0332,7.9330407 -8.89662,13.0485237 l -58.46189,160.49122 c -1.86345,5.11541 -2.8199,10.27215 -3.05873,15.205 -0.23885,4.93286 0.24692,9.65163 1.32715,13.90172 1.08023,4.25011 2.7695,8.05278 5.00982,11.18648 2.2403,3.13371 5.04335,5.60857 8.43856,7.2421 3.82428,1.83995 7.96987,2.41873 12.32293,1.93791 4.35306,-0.48083 8.9132,-2.04372 13.36019,-4.51415 3.45829,-1.91805 6.83758,-4.38687 10.00799,-7.39544 3.1704,-3.00858 6.10521,-6.54156 8.58659,-10.59933 L 618.30783,62.985594 c 2.4814,-4.057781 3.96925,-8.463671 4.48957,-13.070983 0.52032,-4.607233 0.0542,-9.411716 -1.35777,-14.157606 C 619.60735,29.640675 616.20346,23.597453 611.3776,18.198149 606.55172,12.798845 600.30252,8.0514524 592.97977,4.5294415 587.29126,1.7934884 581.4692,0.02895638 575.76277,-0.79994981 z M 167.77742,-1.0068883 c -3.75288,-0.4924043 -7.72321,-0.5715238 -11.7598,-0.1656662 -6.45854,0.64937529 -13.13601,2.4923168 -19.61015,5.6129479 -6.47415,3.1206308 -12.0941,7.2054496 -16.61982,11.8503736 -4.52569,4.644923 -7.95723,9.857825 -10.17912,15.217129 -2.22191,5.359304 -3.23741,10.871431 -2.96339,16.193551 0.27403,5.322119 1.83661,10.463187 4.67033,15.112421 l 88.91832,145.852782 c 2.83373,4.64924 6.25085,8.64204 9.95846,11.9074 3.70759,3.26536 7.69525,5.81721 11.69774,7.62317 4.00253,1.80598 8.03654,2.85277 11.89871,3.04969 3.86219,0.19693 7.5575,-0.45664 10.97651,-2.10694 3.41901,-1.6503 6.23614,-4.12998 8.48062,-7.27381 2.24448,-3.14381 3.90638,-6.95979 4.97892,-11.21349 1.07255,-4.25372 1.53441,-8.95367 1.2853,-13.88602 -0.24911,-4.93236 -1.21409,-10.08255 -3.08488,-15.19521 L 197.73211,21.149132 c -1.87078,-5.112671 -4.90573,-9.505694 -8.90239,-13.0336959 -3.99666,-3.5280015 -8.95894,-6.1967888 -14.54254,-7.79428269 -2.09385,-0.59906901 -4.25802,-1.03262863 -6.50976,-1.32804171 z M 741.55541,130.24639 c -4.97458,-0.58929 -9.81678,-0.24294 -14.30438,1.02421 -5.12866,1.44816 -9.78675,4.07917 -13.69101,7.8742 L 591.07166,258.23621 c -3.90426,3.79504 -7.0151,8.01829 -9.37619,12.35783 -2.36109,4.33953 -3.99512,8.78443 -4.86943,13.08583 -0.8743,4.30138 -1.01571,8.46726 -0.35637,12.27114 0.6593,3.80387 2.11659,7.24722 4.47256,10.20497 0.77168,0.96879 1.61919,1.84681 2.53083,2.65133 2.55666,2.25417 5.65169,3.88337 9.13985,4.93692 3.48818,1.05355 7.39176,1.53542 11.50589,1.42505 4.11413,-0.11041 8.43186,-0.79061 12.80604,-2.12736 4.37418,-1.33672 8.78885,-3.3275 12.9866,-6.0419 l 143.4401,-92.7517 c 4.19774,-2.71441 7.60173,-6.25606 10.10964,-10.43802 2.50791,-4.18197 4.14468,-9.00117 4.78978,-14.19839 0.6451,-5.19723 0.31044,-10.77227 -1.04028,-16.41686 -1.35069,-5.64461 -3.73336,-11.38161 -7.13287,-16.81013 -1.21323,-1.93624 -2.5677,-3.83207 -4.03777,-5.67703 -4.4882,-5.63276 -9.71998,-10.19786 -15.25831,-13.58627 -5.53835,-3.38844 -11.37066,-5.59426 -17.09104,-6.57343 -0.71506,-0.12236 -1.4246,-0.21762 -2.13526,-0.30174 z M -3.6880375,129.74481 c -3.3950179,-0.34551 -6.9297085,-0.23343 -10.5047795,0.3712 -5.720122,0.96744 -11.544866,3.18902 -17.084414,6.56265 -5.539548,3.37363 -10.798495,7.91567 -15.289077,13.53081 -4.490482,5.61511 -7.775165,11.71963 -9.853796,17.87274 -2.078632,6.15313 -2.952328,12.35335 -2.64468,18.15535 0.307547,5.80202 1.80604,11.20601 4.351233,15.89102 2.545193,4.685 6.152584,8.6607 10.718628,11.62564 l 143.266085,93.0097 c 4.566048,2.96494 9.367548,5.07199 14.118328,6.4176 4.75079,1.34559 9.43208,1.936 13.81538,1.84329 4.3833,-0.0926 8.45248,-0.87128 12.01568,-2.35338 3.56319,-1.4821 6.62805,-3.68016 8.99903,-6.6412 2.371,-2.96101 3.83334,-6.39528 4.50445,-10.20257 0.67112,-3.8073 0.56254,-7.98676 -0.3025,-12.29156 -0.86504,-4.30481 -2.47902,-8.74153 -4.83243,-13.08547 -2.3534,-4.34398 -5.46277,-8.59726 -9.36076,-12.39874 L 15.926376,138.77961 c -3.897988,-3.80148 -8.5522155,-6.44816 -13.6780069,-7.90534 -1.9221703,-0.54643 -3.8993912,-0.92214 -5.9364066,-1.12946 z M 840.7385,322.66319 c -4.83288,-0.64958 -9.70628,-0.2059 -14.44452,1.38444 l -161.95039,54.34171 c -6.89197,2.31328 -12.84901,5.92696 -17.62875,10.11617 -4.77976,4.1893 -8.37465,8.97312 -10.54136,13.84831 -2.14752,4.83438 -2.86949,9.773 -1.75941,14.64499 0.83515,3.6649 2.62817,6.94529 5.18249,9.82236 2.55431,2.87706 5.87843,5.3502 9.77951,7.34884 3.9011,1.99865 8.38043,3.5173 13.24163,4.38516 4.86121,0.86777 10.10527,1.09277 15.50759,0.4196 l 169.49577,-21.13118 c 5.40222,-0.67319 10.3752,-2.6297 14.71096,-5.72914 4.33557,-3.09935 8.02372,-7.34155 10.83361,-12.42534 2.8098,-5.08386 4.73381,-11.01837 5.55083,-17.47247 0.81701,-6.45409 0.50176,-13.41162 -1.09604,-20.45584 -2.12403,-9.36399 -6.24469,-17.62822 -11.56738,-24.08084 -5.35627,-6.46284 -11.88854,-11.09598 -18.77026,-13.46386 -2.15059,-0.73997 -4.34751,-1.25767 -6.54433,-1.55292 z m -943.62991,-0.22627 c -3.28728,-0.44819 -6.60334,-0.37713 -9.88441,0.19773 -5.24959,0.91977 -10.3929,3.13471 -15.12304,6.49595 -4.73003,3.36123 -9.03183,7.86288 -12.55206,13.31026 -3.52031,5.44739 -6.26722,11.84269 -7.86693,18.84877 -1.5997,7.0061 -1.90419,13.92774 -1.09778,20.36713 0.80639,6.43939 2.73276,12.40409 5.53482,17.48982 2.80214,5.08571 6.47617,9.31513 10.80656,12.42425 4.33038,3.10913 9.30315,5.08289 14.70464,5.76734 l 169.487212,21.48635 c 5.401499,0.68445 10.652295,0.45927 15.516612,-0.39824 4.864317,-0.85751 9.335776,-2.34425 13.243632,-4.33992 3.907841,-1.99564 7.254117,-4.49705 9.818043,-7.38799 2.563926,-2.89091 4.344835,-6.19303 5.190038,-9.89529 0.845224,-3.70226 0.672854,-7.4464 -0.38178,-11.16761 -1.054645,-3.72122 -2.987881,-7.42142 -5.642031,-10.92001 -2.654149,-3.49859 -6.040786,-6.79693 -10.051078,-9.68267 -4.010305,-2.88574 -8.651275,-5.34643 -13.814958,-7.07219 L -97.017353,323.81048 c -1.936529,-0.64717 -3.901737,-1.10465 -5.874057,-1.37356 z m 780.90844,195.7766 c -5.40158,-0.68377 -10.61747,-0.48694 -15.48169,0.37117 -4.86419,0.85812 -9.37094,2.37081 -13.27854,4.36699 -3.9076,1.99606 -7.2235,4.50067 -9.78706,7.39191 -2.56357,2.89125 -4.37627,6.18905 -5.22104,9.89137 -0.84475,3.70234 -0.64231,7.45048 0.41279,11.17155 1.05511,3.72106 2.96037,7.38681 5.61495,10.88508 2.65457,3.49826 6.03651,6.82846 10.04715,9.71367 4.01065,2.88522 8.65105,5.34713 13.81497,7.07219 l 162.01746,54.11918 c 5.16384,1.72506 10.50864,2.09623 15.75829,1.17581 5.24956,-0.92042 10.42444,-3.13028 15.15408,-6.49201 4.72954,-3.36186 9.03645,-7.89346 12.55608,-13.34128 3.51963,-5.44792 6.23307,-11.81542 7.83192,-18.8217 1.59893,-7.00626 1.905,-13.92777 1.0978,-20.36712 -0.80722,-6.43926 -2.73223,-12.40439 -5.53487,-17.48982 -2.80275,-5.08534 -6.47567,-9.31564 -10.80646,-12.42424 -4.33079,-3.1086 -9.30302,-5.08357 -14.70471,-5.76736 L 678.01703,518.21352 z m -613.325386,0.007 c -4.334053,-0.61385 -8.932216,-0.68014 -13.659194,-0.0911 l -169.49181,21.10017 c -5.40218,0.6732 -10.37918,2.6607 -14.71484,5.76014 -4.33555,3.09937 -8.05098,7.30662 -10.86073,12.3904 -2.80985,5.08388 -4.74158,11.04891 -5.55461,17.5035 -0.81702,6.4541 -0.50192,13.4116 1.09593,20.45583 2.12396,9.36399 6.27559,17.63213 11.59834,24.08478 5.35626,6.46284 11.88844,11.09595 18.77028,13.46385 6.88174,2.36789 14.09676,2.48174 20.988769,0.16846 L 64.787116,578.67978 c 6.891994,-2.31329 12.845064,-5.89599 17.624835,-10.08519 4.779766,-4.18929 8.40564,-8.96918 10.572339,-13.84437 2.147499,-4.83438 2.84243,-9.80794 1.732293,-14.67992 -0.835134,-3.66491 -2.601136,-6.91038 -5.15541,-9.78743 -2.554283,-2.87706 -5.874495,-5.3812 -9.775591,-7.37985 -3.901101,-1.99865 -8.38042,-3.5173 -13.241623,-4.38517 -0.607655,-0.10844 -1.233159,-0.20983 -1.852315,-0.29748 z m 544.024546,124.1793 c -2.3147,-0.3055 -4.56379,-0.42924 -6.75543,-0.38266 -4.38328,0.0931 -8.4837,0.86699 -12.04668,2.34947 -3.56301,1.48258 -6.59742,3.68378 -8.96803,6.64511 -2.37062,2.96133 -3.83381,6.39516 -4.50445,10.20258 -0.67065,3.80733 -0.56306,7.98687 0.30251,12.29156 0.86556,4.30478 2.47848,8.74186 4.83242,13.08548 2.35393,4.34371 5.46231,8.59775 9.36076,12.39874 l 122.30589,119.24136 c 3.89844,3.80099 8.55205,6.44868 13.678,7.90535 5.12599,1.45638 10.72121,1.72649 16.4412,0.75817 5.71996,-0.96802 11.57229,-3.15337 17.1115,-6.52773 5.53913,-3.37439 10.7722,-7.95001 15.26199,-13.56567 4.48989,-5.61571 7.77583,-11.71932 9.85375,-17.87278 2.07803,-6.15334 2.95308,-12.35329 2.64479,-18.15533 -0.30831,-5.80196 -1.80555,-11.20633 -4.35127,-15.89103 -2.54573,-4.68469 -6.15219,-8.66129 -10.71857,-11.62563 l -143.2701,-92.97869 c -4.56642,-2.96435 -9.3674,-5.07252 -14.11833,-6.41761 -2.37548,-0.6725 -4.74526,-1.15518 -7.05995,-1.46069 z m -477.72391,-0.21539 c -1.92049,-0.23505 -3.8976,-0.30606 -5.95328,-0.24962 -4.11135,0.11289 -8.46677,0.78628 -12.83706,2.12342 -4.37029,1.33724 -8.76179,3.33324 -12.955578,6.04584 l -143.443998,92.7827 c -4.193849,2.71251 -7.598943,6.22941 -10.105727,10.40697 -2.506782,4.17766 -4.111707,9.01068 -4.758766,14.20232 -0.64716,5.19153 -0.331843,10.74258 1.013216,16.38193 1.344958,5.63926 3.715488,11.34977 7.105793,16.7752 1.22259,1.95542 2.576479,3.88049 4.060843,5.74295 4.488947,5.63213 9.71958,10.19858 15.258338,13.58629 5.538757,3.38771 11.401563,5.59888 17.122024,6.57734 5.7205323,0.97845 11.311165,0.72646 16.43966,-0.72235 5.128504,-1.44892 9.787231,-4.07876 13.69103,-7.87425 L 138.11711,698.87176 c 3.90381,-3.7955 6.98465,-8.02196 9.3452,-12.36176 2.36054,-4.33981 3.99566,-8.78431 4.86942,-13.08583 0.87375,-4.30143 0.98518,-8.47129 0.32545,-12.27506 -0.65979,-3.80379 -2.08519,-7.24362 -4.44156,-10.20106 -0.77922,-0.97801 -1.6361,-1.87567 -2.55791,-2.68625 -2.5584,-2.24759 -5.65253,-3.88776 -9.13985,-4.93691 -1.74364,-0.52475 -3.60501,-0.90553 -5.52553,-1.14046 z m 365.84961,83.73313 c -0.48747,-0.051 -0.95119,-0.094 -1.43396,-0.11847 -3.86221,-0.19648 -7.5887,0.4523 -11.00751,2.10302 -3.41881,1.65072 -6.20945,4.16455 -8.45355,7.30872 -2.24411,3.14407 -3.93396,6.92473 -5.00599,11.17859 -1.07204,4.25384 -1.53502,8.95371 -1.2853,13.88602 0.24972,4.93231 1.20952,10.11382 3.08096,15.22616 l 58.72798,160.39522 c 1.87142,5.1125 4.90531,9.5062 8.90237,13.0338 3.99711,3.52741 8.95877,6.19746 14.54256,7.79424 5.58377,1.59688 11.78403,2.10888 18.24248,1.45872 6.45843,-0.65006 13.16739,-2.48746 19.64116,-5.60897 6.47375,-3.12141 12.09469,-7.20493 16.61981,-11.85041 4.52514,-4.6455 7.95398,-9.82651 10.1752,-15.18609 2.22124,-5.35958 3.211,-10.90639 2.9363,-16.22843 -0.27468,-5.32213 -1.80894,-10.42864 -4.64326,-15.07749 L 528.96284,748.3793 c -2.8343,-4.64895 -6.28539,-8.61541 -9.99339,-11.88032 -3.70799,-3.26492 -7.69109,-5.8487 -11.69382,-7.65417 -3.5024,-1.57979 -7.02141,-2.57013 -10.43374,-2.92725 z m -258.55077,0.0302 c -2.07051,-0.3137 -4.20187,-0.32729 -6.38379,-0.0836 -4.36384,0.48742 -8.90416,2.02887 -13.36018,4.51414 -3.4471,1.91949 -6.84878,4.39223 -10.00799,7.39545 -3.15923,3.00327 -6.08208,6.55725 -8.5556,10.60324 L 110.8849,894.09113 c -2.47352,4.04609 -3.96563,8.47819 -4.48956,13.07087 -0.5239,4.59257 -0.0935,9.35563 1.3036,14.08787 1.82272,6.13094 5.25795,12.17974 10.08913,17.59373 4.83117,5.41408 11.08099,10.2055 18.42096,13.73473 6.50151,3.12604 13.20281,4.96266 19.67015,5.60838 6.46736,0.64561 12.69471,0.0755 18.27428,-1.52964 5.57957,-1.60509 10.50907,-4.23766 14.49709,-7.77212 3.98806,-3.53474 7.03779,-7.9639 8.90057,-13.07958 L 255.982,775.31022 c 1.86275,-5.11565 2.82049,-10.2721 3.05873,-15.20494 0.23823,-4.93303 -0.24639,-9.65176 -1.32717,-13.90173 -1.08076,-4.25003 -2.74199,-8.01818 -4.98272,-11.15159 -2.24074,-3.13342 -5.04312,-5.60896 -8.43856,-7.2421 -1.91668,-0.92185 -3.93065,-1.54839 -6.00116,-1.86215 z m 129.07431,29.44289 c -0.92637,-0.12532 -1.86021,-0.19717 -2.80985,-0.19819 -3.79856,-0.004 -7.42567,0.99856 -10.81874,2.85136 -3.39308,1.85294 -6.56026,4.55257 -9.38089,7.91587 -2.82061,3.36321 -5.28907,7.38867 -7.21267,11.93872 -1.92359,4.54995 -3.31811,9.62288 -3.85696,15.04101 l -16.89018,170.00604 c -0.53884,5.41802 0.2779,10.68962 2.34004,15.60491 2.06213,4.91539 5.356,9.45466 9.68491,13.32179 4.3289,3.86703 9.7058,7.08355 15.79991,9.30794 6.09409,2.2243 12.91457,3.4521 20.09986,3.4579 7.18531,0.01 14.02552,-1.2231 20.1223,-3.4378 6.09673,-2.21425 11.45592,-5.41808 15.79018,-9.2778 4.33427,-3.85992 7.64468,-8.38004 9.71487,-13.29153 2.07018,-4.91161 2.88254,-10.19078 2.35392,-15.60927 L 395.74167,793.00201 c -0.52861,-5.41858 -1.91342,-10.4839 -3.82934,-15.03746 -1.9159,-4.55366 -4.36346,-8.59594 -7.1792,-11.96512 -2.81578,-3.3689 -6.00023,-6.0696 -9.39102,-7.92961 -2.54304,-1.39527 -5.19756,-2.303 -7.97668,-2.67922 z"
       id="path3755"
       inkscape:connector-curvature="0"
       inkscape:export-filename="D:\CoderChild\projects\Cubit-3DS\data\rawdata\common\data\menu\sprites\processing.png"
       inkscape:export-xdpi="90"
       inkscape:export-ydpi="90" />
  </g>
  <g
     inkscape:groupmode="layer"
     id="layer2"
     inkscape:label="Capa"
     style="display:none"
     transform="translate(437.48657,245.26746)">
    <path
       style="color:#000000;fill:#00ffff;fill-opacity:1;fill-rule:nonzero;stroke:#000000;stroke-width:3;stroke-linecap:square;stroke-linejoin:bevel;stroke-miterlimit:4;stroke-opacity:1;stroke-dashoffset:0;marker:none;visibility:visible;display:inline;overflow:visible;enable-background:accumulate"
       d="m 1067.4488,542.58217 c 2.4698,6.7878 3.6421,13.6585 3.6457,20.1641 0,6.5056 -1.1599,12.6447 -3.309,18.0412 -2.1492,5.3964 -5.2818,10.0498 -9.1938,13.6691 -3.9121,3.6194 -8.6011,6.2052 -13.8761,7.5515 l -165.50128,42.2415 c -5.275,1.3463 -10.5039,1.7886 -15.4356,1.5382 -4.9317,-0.2505 -9.5674,-1.1926 -13.6886,-2.6855 -4.1212,-1.4929 -7.7285,-3.5364 -10.6239,-6.0699 -2.8954,-2.5335 -5.079,-5.5576 -6.3678,-9.0886 -1.7132,-4.694 -1.6342,-9.701 -0.1108,-14.7668 1.5373,-5.1087 4.5245,-10.292 8.7403,-15.0484 4.2158,-4.7563 9.6657,-9.0856 16.2126,-12.2461 l 153.82618,-74.2587 c 6.5469,-3.1605 13.7285,-3.9488 20.8532,-2.4639 7.1246,1.4849 14.1851,5.2502 20.3106,10.9892 6.0909,5.7331 11.2351,13.41 14.5183,22.4331 z"
       id="path3755-8"
       inkscape:connector-curvature="0"
       sodipodi:nodetypes="scscsscssccsssscs" />
  </g>
</svg>
